<svg id="svg" version="1.1" xmlns="http://www.w3.org/2000/svg" xmlns:xlink="http://www.w3.org/1999/xlink" width="400" height="77.41935483870968" viewBox="0, 0, 400,77.41935483870968"><g id="svgg"><path id="path0" d="M9.203 11.792 C 7.899 13.059,7.978 11.479,8.053 34.917 C 8.119 55.758,8.156 57.276,8.602 57.447 C 8.729 57.496,8.833 57.636,8.833 57.759 C 8.833 58.521,10.633 60.811,11.583 61.258 C 11.858 61.387,12.196 61.568,12.333 61.659 C 13.015 62.111,15.576 63.000,16.198 63.000 C 16.377 63.000,16.636 63.112,16.774 63.250 C 16.911 63.388,17.164 63.500,17.335 63.500 C 17.507 63.500,17.693 63.575,17.750 63.667 C 17.807 63.758,18.032 63.833,18.250 63.833 C 18.468 63.833,18.697 63.915,18.759 64.015 C 18.821 64.114,19.012 64.159,19.185 64.113 C 19.358 64.068,19.500 64.099,19.500 64.182 C 19.500 64.265,19.725 64.333,20.000 64.333 C 20.275 64.333,20.500 64.408,20.500 64.500 C 20.500 64.592,20.683 64.667,20.907 64.667 C 21.131 64.667,21.355 64.733,21.405 64.814 C 21.455 64.895,21.703 64.998,21.956 65.042 C 22.446 65.128,23.890 65.614,24.373 65.855 C 24.532 65.935,24.809 66.000,24.988 66.000 C 25.167 66.000,25.360 66.075,25.417 66.167 C 25.473 66.258,25.698 66.333,25.917 66.333 C 26.135 66.333,26.360 66.408,26.417 66.500 C 26.473 66.592,26.670 66.667,26.854 66.667 C 27.038 66.667,27.540 66.810,27.969 66.984 C 29.173 67.474,29.385 67.546,29.829 67.620 C 30.056 67.657,30.319 67.749,30.413 67.822 C 30.506 67.896,30.874 68.009,31.229 68.073 C 31.584 68.137,31.996 68.251,32.146 68.327 C 32.481 68.497,33.207 68.781,33.376 68.809 C 33.445 68.820,33.772 68.942,34.102 69.080 C 34.432 69.218,34.764 69.293,34.840 69.246 C 34.915 69.199,35.024 69.237,35.082 69.331 C 35.139 69.424,35.333 69.500,35.512 69.500 C 35.691 69.500,35.987 69.575,36.169 69.667 C 36.351 69.758,36.649 69.908,36.831 70.000 C 37.013 70.092,37.303 70.167,37.476 70.167 C 37.773 70.167,39.253 70.690,39.873 71.015 C 40.032 71.098,40.309 71.167,40.488 71.167 C 40.667 71.167,40.860 71.242,40.917 71.333 C 40.973 71.425,41.236 71.500,41.500 71.500 C 41.764 71.500,42.027 71.575,42.083 71.667 C 42.218 71.884,44.116 71.884,44.250 71.667 C 44.307 71.575,44.461 71.500,44.592 71.500 C 44.958 71.500,45.663 70.821,46.019 70.126 C 46.331 69.518,46.338 68.908,46.295 47.043 L 46.250 24.583 45.888 23.917 C 45.688 23.550,45.388 23.134,45.221 22.992 C 45.054 22.850,44.729 22.496,44.500 22.204 C 44.233 21.864,43.984 21.704,43.808 21.759 C 43.656 21.807,39.194 20.411,33.891 18.657 C 21.577 14.585,21.464 14.545,21.167 14.196 C 20.802 13.769,19.089 13.092,18.809 13.265 C 18.731 13.313,18.667 13.274,18.667 13.177 C 18.667 13.079,18.446 13.000,18.177 13.000 C 17.907 13.000,17.640 12.925,17.583 12.833 C 17.527 12.742,17.297 12.667,17.073 12.667 C 16.850 12.667,16.667 12.592,16.667 12.500 C 16.667 12.408,16.535 12.333,16.375 12.333 C 16.215 12.333,15.689 12.183,15.207 12.000 C 14.724 11.817,14.181 11.667,13.998 11.667 C 13.816 11.667,13.667 11.592,13.667 11.500 C 13.667 11.408,13.484 11.333,13.260 11.333 C 13.036 11.333,12.807 11.258,12.750 11.167 C 12.693 11.075,12.055 11.000,11.332 11.000 L 10.017 11.000 9.203 11.792 " stroke="none" fill="#04bee0" fill-rule="evenodd"></path><path id="path1" d="M216.750 14.501 C 216.383 14.572,216.032 14.600,215.970 14.563 C 215.907 14.525,215.809 14.571,215.752 14.664 C 215.694 14.757,215.351 14.833,214.990 14.833 C 214.629 14.833,214.333 14.908,214.333 15.000 C 214.333 15.092,214.190 15.167,214.014 15.167 C 213.838 15.167,213.463 15.459,213.181 15.816 L 212.667 16.465 212.667 36.735 C 212.667 52.647,212.711 57.082,212.875 57.365 C 213.229 57.977,213.565 58.333,213.787 58.333 C 213.904 58.333,214.000 58.408,214.000 58.500 C 214.000 58.741,219.752 58.721,220.219 58.477 C 221.548 57.786,221.667 57.330,221.667 52.892 L 221.667 48.988 222.883 47.736 C 224.057 46.527,224.667 46.249,224.667 46.923 C 224.667 47.044,224.760 47.244,224.875 47.367 C 224.990 47.491,225.343 47.927,225.660 48.337 C 225.978 48.748,226.297 49.108,226.369 49.139 C 226.441 49.169,226.500 49.301,226.500 49.431 C 226.500 49.560,226.575 49.667,226.667 49.667 C 226.758 49.667,226.833 49.773,226.833 49.903 C 226.833 50.033,226.892 50.164,226.965 50.194 C 227.037 50.225,227.355 50.587,227.673 51.000 C 227.990 51.413,228.288 51.788,228.335 51.833 C 228.382 51.879,228.619 52.217,228.862 52.583 C 229.105 52.950,229.501 53.456,229.742 53.708 C 229.983 53.960,230.121 54.168,230.048 54.169 C 229.976 54.171,229.992 54.227,230.083 54.294 C 230.175 54.362,230.510 54.754,230.827 55.167 C 231.145 55.579,231.463 55.942,231.535 55.972 C 231.608 56.003,231.667 56.123,231.667 56.239 C 231.667 56.579,233.188 58.040,233.977 58.458 C 234.778 58.882,241.601 58.742,242.080 58.292 C 242.774 57.639,242.725 56.200,241.984 55.458 C 241.700 55.174,241.276 54.636,241.042 54.263 C 240.808 53.889,240.459 53.433,240.266 53.249 C 240.074 53.065,239.714 52.603,239.466 52.222 C 239.218 51.842,238.843 51.350,238.633 51.128 C 238.422 50.907,237.950 50.327,237.583 49.839 C 237.217 49.351,236.673 48.694,236.375 48.378 C 236.077 48.063,235.833 47.699,235.833 47.569 C 235.833 47.439,235.771 47.333,235.695 47.333 C 235.619 47.333,235.456 47.146,235.333 46.917 C 235.211 46.688,235.016 46.500,234.900 46.500 C 234.784 46.500,234.637 46.335,234.573 46.133 C 234.508 45.931,234.372 45.680,234.270 45.576 C 234.167 45.471,233.896 45.137,233.667 44.833 C 233.438 44.529,233.156 44.185,233.042 44.069 C 232.927 43.952,232.833 43.815,232.833 43.764 C 232.833 43.659,232.501 43.235,231.708 42.329 C 231.011 41.532,231.015 41.512,232.000 40.516 C 232.458 40.053,232.833 39.644,232.833 39.607 C 232.833 39.520,234.303 37.907,235.667 36.499 C 236.262 35.884,237.149 34.927,237.637 34.374 C 238.125 33.820,238.988 32.891,239.556 32.308 C 243.787 27.966,243.308 26.708,237.492 26.889 C 233.323 27.020,233.770 26.742,228.862 32.253 C 228.373 32.801,227.623 33.631,227.195 34.097 C 226.767 34.563,226.042 35.374,225.583 35.898 C 225.125 36.423,224.450 37.180,224.083 37.580 C 223.717 37.980,223.079 38.686,222.667 39.148 C 222.254 39.611,221.860 39.992,221.792 39.995 C 221.723 39.998,221.667 34.558,221.667 27.906 C 221.667 15.084,221.687 15.418,220.854 14.714 C 220.384 14.317,218.263 14.207,216.750 14.501 M365.671 14.504 C 365.352 14.579,365.039 14.607,364.974 14.567 C 364.909 14.527,364.809 14.571,364.752 14.664 C 364.694 14.757,364.351 14.833,363.990 14.833 C 363.629 14.833,363.333 14.908,363.333 15.000 C 363.333 15.092,363.218 15.167,363.077 15.167 C 362.703 15.167,362.000 15.668,362.000 15.936 C 362.000 16.063,361.943 16.167,361.874 16.167 C 361.371 16.167,361.333 17.592,361.333 36.770 C 361.333 57.803,361.292 56.915,362.321 58.034 L 362.903 58.667 365.993 58.666 C 370.554 58.666,370.667 58.523,370.667 52.725 L 370.667 48.961 371.337 48.272 C 373.268 46.287,373.050 46.443,373.360 46.825 C 373.512 47.013,373.718 47.167,373.818 47.167 C 373.918 47.167,374.000 47.247,374.000 47.345 C 374.000 47.536,375.269 49.362,375.786 49.917 C 375.957 50.100,376.352 50.625,376.663 51.083 C 376.974 51.542,377.353 52.029,377.505 52.167 C 377.657 52.304,377.993 52.754,378.251 53.167 C 378.510 53.579,378.809 53.992,378.916 54.083 C 379.023 54.175,379.403 54.663,379.760 55.167 C 380.117 55.671,380.486 56.165,380.580 56.265 C 380.673 56.365,380.933 56.688,381.157 56.983 C 381.381 57.278,381.916 57.777,382.346 58.093 L 383.128 58.667 386.856 58.661 C 390.583 58.656,391.167 58.572,391.167 58.041 C 391.167 57.946,391.279 57.826,391.417 57.773 C 391.574 57.713,391.667 57.457,391.667 57.083 C 391.667 56.709,391.574 56.454,391.417 56.394 C 391.279 56.341,391.167 56.182,391.167 56.040 C 391.167 55.781,390.380 54.632,390.132 54.528 C 390.059 54.497,390.000 54.364,390.000 54.231 C 390.000 54.098,389.889 53.947,389.753 53.895 C 389.618 53.843,389.359 53.561,389.178 53.268 C 388.862 52.757,388.634 52.471,387.738 51.460 C 387.516 51.208,387.333 50.966,387.333 50.920 C 387.333 50.817,386.872 50.237,386.368 49.706 C 386.157 49.485,385.789 48.992,385.550 48.610 C 385.310 48.229,384.991 47.804,384.841 47.667 C 384.691 47.529,384.385 47.154,384.162 46.833 C 383.940 46.512,383.587 46.078,383.379 45.867 C 383.170 45.657,383.000 45.431,383.000 45.366 C 383.000 45.300,382.831 45.060,382.625 44.832 C 382.419 44.603,382.033 44.117,381.767 43.750 C 381.501 43.383,381.198 43.008,381.093 42.917 C 380.989 42.825,380.690 42.467,380.429 42.121 C 379.894 41.412,379.857 41.510,381.167 40.156 C 383.032 38.228,385.593 35.443,385.652 35.280 C 385.752 35.000,386.116 34.667,386.321 34.667 C 386.420 34.667,386.500 34.608,386.500 34.536 C 386.500 34.464,387.006 33.867,387.625 33.209 C 391.299 29.302,391.612 28.760,390.822 27.651 C 390.576 27.305,390.338 27.167,389.989 27.167 C 389.720 27.167,389.500 27.092,389.500 27.000 C 389.500 26.895,388.448 26.833,386.677 26.833 C 384.974 26.833,383.812 26.900,383.750 27.000 C 383.693 27.092,383.472 27.167,383.259 27.167 C 382.627 27.167,380.000 29.264,380.000 29.768 C 380.000 29.876,379.752 30.160,378.583 31.391 C 378.033 31.971,377.234 32.851,376.807 33.347 C 376.380 33.844,375.742 34.556,375.390 34.931 C 375.038 35.306,374.375 36.046,373.917 36.576 C 373.458 37.106,372.663 37.978,372.150 38.513 C 371.636 39.048,371.097 39.658,370.950 39.868 C 370.705 40.219,370.683 39.289,370.675 28.244 C 370.666 15.193,370.713 15.929,369.798 14.625 C 369.573 14.304,366.858 14.224,365.671 14.504 M249.585 18.051 C 247.850 19.091,248.000 17.163,248.000 38.431 L 248.000 57.158 248.754 57.912 L 249.509 58.667 252.629 58.661 C 254.824 58.658,255.826 58.596,256.006 58.453 C 256.589 57.991,257.000 57.186,257.000 56.506 C 257.000 56.087,257.066 55.854,257.167 55.917 C 257.277 55.985,257.338 52.318,257.346 45.052 C 257.354 39.019,257.399 34.181,257.447 34.301 C 257.495 34.421,257.695 34.686,257.892 34.890 C 258.089 35.094,258.550 35.632,258.917 36.086 C 259.283 36.541,259.902 37.242,260.292 37.645 C 260.681 38.048,261.000 38.404,261.000 38.437 C 261.000 38.522,261.501 39.127,262.084 39.746 C 262.359 40.038,262.782 40.533,263.024 40.847 C 263.265 41.160,263.771 41.748,264.148 42.153 C 264.525 42.558,264.833 42.935,264.833 42.991 C 264.833 43.048,265.197 43.475,265.641 43.941 C 266.086 44.407,266.575 44.967,266.727 45.185 C 267.027 45.613,268.179 46.942,269.250 48.096 C 269.617 48.491,270.067 49.024,270.250 49.282 C 270.433 49.539,270.858 50.036,271.194 50.387 C 271.529 50.737,271.942 51.214,272.110 51.446 C 272.279 51.679,272.606 52.067,272.837 52.310 C 273.068 52.552,273.694 53.275,274.228 53.917 C 277.165 57.448,278.366 58.667,278.908 58.667 C 279.039 58.667,279.190 58.736,279.242 58.820 C 279.395 59.068,282.282 59.000,282.810 58.737 C 283.426 58.429,284.083 57.674,284.258 57.071 C 284.469 56.348,284.544 20.167,284.335 20.167 C 284.242 20.167,284.164 19.998,284.161 19.792 C 284.155 19.335,283.825 18.878,283.211 18.473 C 282.680 18.123,276.789 18.001,276.582 18.336 C 276.524 18.429,276.412 18.465,276.332 18.416 C 276.152 18.304,275.500 18.983,275.500 19.281 C 275.500 19.402,275.427 19.500,275.338 19.500 C 275.234 19.500,275.173 23.641,275.169 30.947 C 275.162 42.958,275.172 42.652,274.812 42.280 C 274.415 41.869,273.088 40.293,272.965 40.086 C 272.900 39.977,272.563 39.583,272.215 39.211 C 271.868 38.838,271.344 38.245,271.051 37.892 C 270.758 37.539,270.359 37.063,270.163 36.833 C 268.692 35.109,268.373 34.751,268.042 34.449 C 267.835 34.261,267.667 34.003,267.667 33.877 C 267.667 33.750,267.592 33.693,267.500 33.750 C 267.408 33.807,267.333 33.736,267.333 33.593 C 267.333 33.450,267.277 33.333,267.208 33.333 C 267.140 33.333,266.933 33.108,266.750 32.833 C 266.567 32.559,266.328 32.334,266.220 32.334 C 266.111 32.334,265.976 32.188,265.920 32.011 C 265.864 31.833,265.440 31.289,264.979 30.802 C 264.518 30.315,263.979 29.692,263.782 29.417 C 263.584 29.142,263.196 28.685,262.919 28.402 C 262.643 28.119,262.192 27.600,261.918 27.249 C 261.643 26.898,261.231 26.417,261.001 26.181 C 260.771 25.944,260.311 25.412,259.978 25.000 C 259.645 24.587,259.156 24.025,258.892 23.750 C 258.627 23.475,258.289 23.076,258.140 22.864 C 257.992 22.652,257.486 22.052,257.016 21.531 C 256.546 21.010,255.881 20.258,255.539 19.861 C 254.480 18.632,254.110 18.314,253.630 18.218 C 253.375 18.167,253.167 18.059,253.167 17.979 C 253.167 17.757,249.969 17.821,249.585 18.051 M105.125 18.514 C 104.873 18.705,104.667 18.997,104.667 19.163 C 104.667 19.329,104.554 19.508,104.417 19.560 C 104.197 19.645,104.167 21.883,104.167 38.316 C 104.167 54.681,104.197 57.007,104.417 57.226 C 104.554 57.364,104.667 57.553,104.667 57.646 C 104.667 57.740,104.917 58.008,105.224 58.242 L 105.781 58.667 115.631 58.667 C 122.017 58.667,125.517 58.608,125.583 58.500 C 125.640 58.408,125.985 58.333,126.349 58.333 C 126.714 58.333,127.178 58.228,127.381 58.099 C 127.584 57.971,128.087 57.812,128.500 57.747 C 128.912 57.682,129.545 57.487,129.906 57.314 C 130.267 57.141,130.631 57.000,130.715 57.000 C 130.800 57.000,131.202 56.775,131.609 56.500 C 132.017 56.225,132.421 56.000,132.508 56.000 C 133.317 56.000,136.391 51.993,136.604 50.661 C 136.662 50.293,136.776 49.952,136.855 49.903 C 137.061 49.776,137.040 44.544,136.833 44.417 C 136.742 44.360,136.667 44.110,136.667 43.861 C 136.667 43.354,135.855 41.688,135.337 41.132 C 135.152 40.933,135.000 40.702,135.000 40.619 C 135.000 40.436,133.504 39.000,133.314 39.000 C 133.240 39.000,132.998 38.803,132.775 38.563 C 132.552 38.322,131.855 37.884,131.226 37.589 L 130.083 37.053 130.639 36.765 C 131.274 36.436,133.165 34.523,133.166 34.208 C 133.166 34.094,133.242 34.000,133.333 34.000 C 133.425 34.000,133.500 33.850,133.500 33.667 C 133.500 33.483,133.575 33.333,133.667 33.333 C 133.758 33.333,133.833 33.183,133.833 33.000 C 133.833 32.817,133.908 32.667,134.000 32.667 C 134.092 32.667,134.167 32.521,134.167 32.343 C 134.167 32.165,134.242 31.973,134.333 31.917 C 134.425 31.860,134.500 31.560,134.500 31.250 C 134.500 30.940,134.575 30.640,134.667 30.583 C 134.760 30.526,134.833 29.752,134.833 28.833 C 134.833 27.915,134.760 27.141,134.667 27.083 C 134.575 27.027,134.500 26.689,134.500 26.333 C 134.500 25.977,134.425 25.640,134.333 25.583 C 134.242 25.527,134.167 25.335,134.167 25.157 C 134.167 24.979,134.092 24.833,134.000 24.833 C 133.908 24.833,133.833 24.728,133.833 24.599 C 133.833 24.284,133.140 23.000,132.969 23.000 C 132.894 23.000,132.832 22.906,132.829 22.792 C 132.822 22.373,130.620 20.333,130.176 20.333 C 130.079 20.333,130.000 20.272,130.000 20.198 C 130.000 20.123,129.720 19.954,129.378 19.823 C 129.036 19.691,128.495 19.452,128.176 19.292 C 127.857 19.131,127.462 19.000,127.298 19.000 C 127.134 19.000,127.000 18.933,127.000 18.852 C 127.000 18.770,126.719 18.660,126.375 18.606 C 126.031 18.553,125.563 18.459,125.333 18.398 C 124.062 18.057,105.588 18.163,105.125 18.514 M122.113 25.451 C 122.784 25.607,123.333 25.794,123.333 25.867 C 123.333 25.940,123.469 26.000,123.635 26.000 C 123.800 26.000,124.157 26.298,124.426 26.663 C 124.696 27.027,125.007 27.327,125.117 27.329 C 125.228 27.332,125.363 27.615,125.418 27.958 C 125.473 28.302,125.589 28.714,125.676 28.873 C 125.885 29.257,125.878 30.786,125.667 30.917 C 125.575 30.973,125.500 31.236,125.500 31.501 C 125.500 31.790,125.326 32.170,125.065 32.450 C 124.825 32.707,124.507 33.071,124.356 33.259 C 124.036 33.662,123.081 34.167,122.641 34.167 C 122.472 34.167,122.333 34.235,122.333 34.319 C 122.333 34.539,120.706 34.673,116.875 34.768 L 113.500 34.852 113.500 30.010 L 113.500 25.167 117.196 25.167 C 120.089 25.167,121.158 25.228,122.113 25.451 M153.075 26.651 C 152.988 26.733,152.579 26.839,152.167 26.885 C 150.704 27.049,148.837 27.552,148.333 27.917 C 148.196 28.017,147.502 28.387,146.792 28.739 C 146.081 29.091,145.500 29.444,145.500 29.523 C 145.500 29.602,145.390 29.667,145.256 29.667 C 145.122 29.667,144.931 29.817,144.833 30.000 C 144.735 30.183,144.556 30.333,144.436 30.333 C 144.185 30.333,142.229 32.279,141.846 32.911 C 141.705 33.143,141.532 33.333,141.461 33.333 C 141.391 33.333,141.333 33.446,141.333 33.583 C 141.333 33.721,141.246 33.833,141.139 33.833 C 141.032 33.833,140.991 33.880,141.048 33.937 C 141.105 33.994,140.968 34.283,140.743 34.578 C 140.518 34.873,140.333 35.201,140.333 35.307 C 140.333 35.413,140.258 35.500,140.167 35.500 C 140.075 35.500,140.000 35.646,140.000 35.823 C 140.000 36.001,139.929 36.191,139.843 36.244 C 139.757 36.297,139.636 36.677,139.574 37.087 C 139.513 37.498,139.402 37.833,139.328 37.833 C 139.254 37.833,139.141 38.077,139.077 38.375 C 139.014 38.673,138.904 38.992,138.834 39.083 C 138.349 39.716,138.349 46.088,138.834 46.750 C 138.902 46.842,139.007 47.198,139.069 47.542 C 139.131 47.885,139.245 48.167,139.322 48.167 C 139.399 48.167,139.508 48.410,139.563 48.708 C 139.711 49.498,139.755 49.644,139.884 49.773 C 139.948 49.837,140.000 50.026,140.000 50.194 C 140.000 50.362,140.075 50.500,140.167 50.500 C 140.258 50.500,140.333 50.580,140.333 50.678 C 140.333 50.776,140.558 51.184,140.833 51.583 C 141.108 51.983,141.333 52.395,141.333 52.498 C 141.333 52.602,141.408 52.640,141.500 52.583 C 141.592 52.527,141.668 52.579,141.669 52.698 C 141.677 53.661,147.009 57.833,148.230 57.833 C 148.384 57.833,148.554 57.946,148.606 58.083 C 148.659 58.221,148.882 58.333,149.101 58.333 C 149.321 58.333,149.500 58.408,149.500 58.500 C 149.500 58.592,149.713 58.667,149.972 58.667 C 150.232 58.667,150.497 58.719,150.560 58.783 C 150.707 58.929,150.986 58.978,152.333 59.097 C 152.929 59.150,153.570 59.266,153.758 59.356 C 154.354 59.642,159.514 59.331,161.167 58.910 C 161.396 58.852,161.771 58.766,162.000 58.720 C 162.539 58.612,163.461 58.199,163.574 58.014 C 163.623 57.936,163.926 57.822,164.248 57.761 C 164.570 57.701,164.833 57.580,164.833 57.492 C 164.833 57.405,164.953 57.333,165.099 57.333 C 165.361 57.333,166.258 56.789,166.583 56.432 C 166.675 56.332,167.053 56.053,167.423 55.812 C 168.355 55.207,169.986 53.532,170.104 53.058 C 170.159 52.843,170.275 52.667,170.363 52.667 C 170.693 52.667,171.500 51.436,171.500 50.933 C 171.500 50.786,171.575 50.667,171.667 50.667 C 171.758 50.667,171.833 50.554,171.833 50.417 C 171.833 50.279,171.908 50.167,172.000 50.167 C 172.092 50.167,172.169 50.073,172.172 49.958 C 172.175 49.844,172.323 49.450,172.500 49.083 C 172.677 48.717,172.825 48.225,172.828 47.992 C 172.831 47.758,172.901 47.495,172.983 47.408 C 173.361 47.009,173.683 40.449,173.341 40.108 C 173.245 40.012,173.167 39.653,173.167 39.310 C 173.167 38.967,173.092 38.640,173.000 38.583 C 172.908 38.527,172.833 38.270,172.833 38.012 C 172.833 37.620,171.137 33.927,170.837 33.667 C 170.785 33.621,170.481 33.248,170.162 32.838 C 169.483 31.964,168.355 30.843,167.417 30.109 C 167.050 29.823,166.645 29.487,166.516 29.363 C 166.325 29.180,165.803 28.910,165.333 28.750 C 165.015 28.641,164.570 28.425,164.500 28.345 C 164.454 28.293,164.117 28.110,163.750 27.940 C 163.383 27.769,162.959 27.566,162.806 27.489 C 162.654 27.412,162.148 27.298,161.681 27.236 C 161.215 27.174,160.833 27.058,160.833 26.979 C 160.833 26.899,160.463 26.833,160.010 26.833 C 159.557 26.833,159.140 26.758,159.083 26.667 C 158.953 26.456,153.296 26.441,153.075 26.651 M189.083 26.667 C 189.027 26.758,188.614 26.833,188.167 26.833 C 187.719 26.833,187.311 26.901,187.260 26.984 C 187.208 27.067,186.776 27.189,186.298 27.255 C 185.504 27.364,185.237 27.453,184.500 27.855 C 184.362 27.930,183.987 28.120,183.667 28.278 C 183.346 28.437,183.039 28.630,182.985 28.708 C 182.930 28.787,182.806 28.828,182.708 28.800 C 182.232 28.666,177.844 32.411,177.836 32.958 C 177.835 33.073,177.758 33.167,177.667 33.167 C 177.575 33.167,177.500 33.273,177.500 33.403 C 177.500 33.533,177.441 33.664,177.369 33.694 C 177.139 33.792,176.500 34.792,176.500 35.054 C 176.500 35.192,176.440 35.331,176.367 35.361 C 176.188 35.436,175.500 36.933,175.500 37.248 C 175.500 37.387,175.425 37.500,175.333 37.500 C 175.242 37.500,175.167 37.721,175.167 37.990 C 175.167 38.260,175.092 38.527,175.000 38.583 C 174.908 38.640,174.833 38.977,174.833 39.333 C 174.833 39.689,174.764 40.023,174.679 40.075 C 174.595 40.128,174.526 41.445,174.526 43.002 C 174.526 44.621,174.592 45.833,174.679 45.833 C 174.764 45.833,174.833 46.166,174.833 46.573 C 174.833 46.981,174.908 47.360,175.000 47.417 C 175.092 47.473,175.167 47.740,175.167 48.010 C 175.167 48.279,175.242 48.500,175.333 48.500 C 175.425 48.500,175.500 48.614,175.500 48.752 C 175.500 48.891,175.570 49.135,175.656 49.294 C 175.741 49.453,175.910 49.827,176.030 50.125 C 176.150 50.423,176.305 50.667,176.374 50.667 C 176.443 50.667,176.500 50.786,176.500 50.933 C 176.500 51.227,177.070 52.102,177.534 52.520 C 177.699 52.668,177.833 52.877,177.833 52.984 C 177.833 53.209,179.857 55.269,180.555 55.755 C 181.001 56.065,181.498 56.448,181.951 56.830 C 182.062 56.924,182.238 57.000,182.342 57.000 C 182.447 57.000,182.743 57.151,183.002 57.335 C 183.260 57.519,183.710 57.717,184.000 57.775 C 184.291 57.833,184.568 57.983,184.615 58.107 C 184.663 58.231,184.840 58.333,185.008 58.333 C 185.176 58.333,185.360 58.408,185.417 58.500 C 185.473 58.592,185.728 58.667,185.982 58.667 C 186.236 58.667,186.497 58.719,186.560 58.783 C 186.718 58.941,187.036 58.993,188.547 59.113 C 189.260 59.169,189.883 59.279,189.932 59.357 C 190.047 59.545,194.120 59.543,194.236 59.355 C 194.311 59.235,196.152 59.005,197.205 58.984 C 197.364 58.981,197.537 58.909,197.590 58.823 C 197.643 58.737,197.833 58.667,198.012 58.667 C 198.309 58.667,198.631 58.538,199.333 58.140 C 199.471 58.062,199.696 57.957,199.833 57.907 C 199.971 57.857,200.296 57.708,200.555 57.575 C 200.815 57.442,201.133 57.333,201.264 57.333 C 201.394 57.333,201.500 57.258,201.500 57.167 C 201.500 57.075,201.605 57.000,201.733 57.000 C 201.860 57.000,202.142 56.814,202.358 56.586 C 202.573 56.359,202.846 56.171,202.964 56.170 C 203.081 56.168,203.220 56.054,203.273 55.917 C 203.326 55.779,203.455 55.666,203.559 55.665 C 203.876 55.662,206.667 52.691,206.667 52.357 C 206.667 52.281,206.816 52.083,206.998 51.919 C 207.180 51.754,207.420 51.367,207.531 51.059 C 207.643 50.752,207.794 50.500,207.867 50.500 C 207.940 50.500,208.000 50.350,208.000 50.167 C 208.000 49.983,208.075 49.833,208.167 49.833 C 208.258 49.833,208.333 49.608,208.333 49.333 C 208.333 49.058,208.390 48.833,208.459 48.833 C 208.612 48.833,209.000 47.639,209.000 47.169 C 209.000 46.985,209.075 46.833,209.167 46.833 C 209.259 46.833,209.333 46.389,209.333 45.833 C 209.333 45.283,209.400 44.833,209.481 44.833 C 209.695 44.833,209.721 41.220,209.508 41.088 C 209.412 41.029,209.333 40.577,209.333 40.083 C 209.333 39.590,209.258 39.140,209.167 39.083 C 209.075 39.027,209.000 38.764,209.000 38.500 C 209.000 38.236,208.925 37.973,208.833 37.917 C 208.742 37.860,208.667 37.631,208.667 37.407 C 208.667 37.183,208.592 37.000,208.500 37.000 C 208.408 37.000,208.333 36.813,208.333 36.583 C 208.333 36.354,208.258 36.167,208.167 36.167 C 208.075 36.167,208.000 36.017,208.000 35.833 C 208.000 35.650,207.925 35.500,207.833 35.500 C 207.742 35.500,207.667 35.366,207.667 35.202 C 207.667 35.038,207.445 34.644,207.173 34.327 C 206.902 34.010,206.677 33.689,206.673 33.614 C 206.652 33.190,204.614 30.953,203.750 30.406 C 203.475 30.232,203.154 29.959,203.036 29.800 C 202.918 29.640,202.543 29.380,202.202 29.222 C 201.862 29.064,201.546 28.888,201.500 28.831 C 201.152 28.401,198.051 27.167,197.317 27.167 C 197.062 27.167,196.807 27.092,196.750 27.000 C 196.693 26.908,196.318 26.833,195.917 26.833 C 195.515 26.833,195.140 26.758,195.083 26.667 C 195.021 26.566,193.835 26.500,192.083 26.500 C 190.332 26.500,189.146 26.566,189.083 26.667 M301.500 26.667 C 301.500 26.758,301.125 26.833,300.667 26.833 C 300.208 26.833,299.833 26.898,299.833 26.977 C 299.833 27.056,299.445 27.166,298.971 27.222 C 298.497 27.279,298.032 27.401,297.938 27.496 C 297.844 27.590,297.627 27.667,297.456 27.667 C 297.284 27.667,296.906 27.842,296.614 28.056 C 296.322 28.270,295.740 28.571,295.320 28.726 C 294.900 28.880,294.412 29.136,294.236 29.295 C 294.060 29.453,293.616 29.805,293.250 30.075 C 292.367 30.727,290.000 33.189,290.000 33.456 C 290.000 33.572,289.934 33.667,289.853 33.667 C 289.772 33.667,289.491 34.098,289.229 34.625 C 288.966 35.152,288.673 35.667,288.577 35.769 C 288.481 35.871,288.266 36.396,288.097 36.935 C 287.929 37.475,287.726 38.047,287.646 38.206 C 287.566 38.365,287.500 38.759,287.500 39.081 C 287.500 39.403,287.425 39.667,287.333 39.667 C 287.228 39.667,287.167 40.858,287.167 42.907 C 287.167 44.887,287.231 46.187,287.333 46.250 C 287.425 46.307,287.500 46.607,287.500 46.917 C 287.500 47.227,287.575 47.527,287.667 47.583 C 287.758 47.640,287.833 47.823,287.833 47.991 C 287.833 48.523,288.387 50.031,288.614 50.118 C 288.735 50.164,288.833 50.344,288.833 50.518 C 288.833 50.691,288.899 50.833,288.979 50.833 C 289.059 50.833,289.167 51.040,289.218 51.292 C 289.269 51.544,289.448 51.900,289.615 52.083 C 289.783 52.267,290.180 52.754,290.497 53.167 C 291.408 54.349,293.350 56.167,293.702 56.167 C 293.773 56.167,294.023 56.335,294.259 56.542 C 294.909 57.112,296.205 57.819,296.615 57.826 C 296.816 57.830,297.025 57.906,297.081 57.996 C 297.216 58.215,298.121 58.614,298.833 58.768 C 299.154 58.837,299.529 58.920,299.667 58.951 C 301.388 59.348,306.349 59.625,306.909 59.356 C 307.097 59.266,307.737 59.150,308.333 59.097 C 309.681 58.978,309.960 58.929,310.106 58.783 C 310.170 58.719,310.435 58.667,310.694 58.667 C 310.954 58.667,311.167 58.592,311.167 58.500 C 311.167 58.408,311.357 58.333,311.589 58.333 C 311.821 58.333,312.052 58.225,312.102 58.094 C 312.153 57.962,312.427 57.803,312.711 57.740 C 313.345 57.601,314.217 57.130,315.032 56.486 C 315.370 56.219,315.689 56.000,315.740 56.000 C 315.791 56.000,316.111 55.737,316.451 55.417 C 316.791 55.096,317.129 54.833,317.201 54.833 C 317.274 54.833,317.333 54.749,317.333 54.646 C 317.333 54.543,317.708 54.118,318.167 53.702 C 318.625 53.287,319.000 52.846,319.000 52.723 C 319.000 52.600,319.075 52.500,319.167 52.500 C 319.258 52.500,319.333 52.415,319.333 52.312 C 319.333 52.208,319.633 51.684,320.000 51.147 C 320.367 50.610,320.667 50.070,320.667 49.946 C 320.667 49.823,320.723 49.666,320.792 49.597 C 320.860 49.528,320.923 49.422,320.930 49.361 C 320.974 49.007,321.209 48.209,321.343 47.961 C 321.430 47.801,321.500 47.470,321.500 47.224 C 321.500 46.978,321.623 46.640,321.774 46.474 C 322.263 45.933,322.152 38.950,321.658 39.255 C 321.568 39.311,321.500 39.065,321.500 38.686 C 321.500 38.320,321.432 37.977,321.348 37.926 C 321.264 37.874,321.145 37.532,321.083 37.167 C 321.022 36.801,320.903 36.459,320.819 36.408 C 320.735 36.356,320.667 36.194,320.667 36.048 C 320.667 35.901,320.490 35.549,320.274 35.266 C 320.058 34.982,319.828 34.581,319.763 34.375 C 319.698 34.169,319.574 34.000,319.489 34.000 C 319.403 34.000,319.333 33.876,319.333 33.725 C 319.333 33.574,319.090 33.213,318.792 32.924 C 318.494 32.634,317.924 32.008,317.526 31.532 C 317.128 31.056,316.731 30.667,316.645 30.667 C 316.558 30.667,316.175 30.367,315.793 30.000 C 315.412 29.633,315.008 29.333,314.897 29.333 C 314.786 29.333,314.669 29.275,314.639 29.203 C 314.608 29.131,314.133 28.854,313.583 28.586 C 313.033 28.319,312.471 28.018,312.333 27.918 C 311.808 27.535,309.893 27.030,308.417 26.885 C 307.958 26.840,307.512 26.735,307.425 26.651 C 307.203 26.439,301.500 26.454,301.500 26.667 M338.083 26.667 C 338.027 26.758,337.614 26.833,337.167 26.833 C 336.719 26.833,336.313 26.898,336.265 26.976 C 336.216 27.055,335.799 27.164,335.337 27.218 C 334.651 27.300,331.213 28.787,330.833 29.167 C 330.787 29.212,330.412 29.511,330.000 29.831 C 329.587 30.151,329.104 30.526,328.926 30.664 C 328.315 31.140,327.500 32.006,327.500 32.180 C 327.500 32.275,327.425 32.307,327.333 32.250 C 327.242 32.193,327.167 32.218,327.167 32.306 C 327.167 32.393,326.942 32.706,326.667 33.000 C 326.392 33.294,326.167 33.634,326.167 33.754 C 326.167 33.874,326.110 33.997,326.042 34.028 C 325.845 34.115,325.333 35.107,325.333 35.401 C 325.333 35.547,325.221 35.667,325.083 35.667 C 324.944 35.667,324.833 35.815,324.833 36.000 C 324.833 36.183,324.758 36.333,324.667 36.333 C 324.575 36.333,324.500 36.508,324.500 36.722 C 324.500 36.936,324.448 37.163,324.384 37.227 C 324.252 37.359,324.190 37.620,324.053 38.629 C 323.999 39.021,323.891 39.381,323.811 39.430 C 323.732 39.479,323.667 40.034,323.667 40.663 C 323.667 41.346,323.593 41.830,323.483 41.867 C 323.375 41.903,323.300 42.368,323.300 43.000 C 323.300 43.632,323.375 44.097,323.483 44.133 C 323.593 44.170,323.667 44.654,323.667 45.337 C 323.667 45.966,323.731 46.520,323.810 46.569 C 323.889 46.617,324.002 47.074,324.062 47.584 C 324.122 48.094,324.239 48.640,324.321 48.797 C 324.404 48.955,324.594 49.365,324.744 49.708 C 324.893 50.052,325.087 50.333,325.174 50.333 C 325.262 50.333,325.333 50.416,325.333 50.516 C 325.333 50.718,325.844 51.867,325.992 52.000 C 326.043 52.046,326.308 52.383,326.580 52.750 C 327.324 53.753,329.378 55.762,329.974 56.070 C 330.263 56.220,330.500 56.415,330.500 56.504 C 330.500 56.594,330.612 56.667,330.750 56.667 C 330.887 56.667,331.000 56.733,331.000 56.814 C 331.000 56.933,331.980 57.503,332.333 57.591 C 332.586 57.654,333.116 57.878,333.333 58.013 C 333.471 58.099,333.696 58.211,333.833 58.263 C 333.971 58.315,334.214 58.427,334.373 58.512 C 334.532 58.597,334.809 58.667,334.988 58.667 C 335.167 58.667,335.357 58.737,335.410 58.823 C 335.463 58.909,335.636 58.978,335.795 58.978 C 335.954 58.977,336.683 59.067,337.417 59.177 C 339.130 59.433,342.870 59.433,344.583 59.177 C 345.317 59.067,346.046 58.977,346.205 58.978 C 346.364 58.978,346.537 58.909,346.590 58.823 C 346.643 58.737,346.865 58.667,347.083 58.667 C 347.302 58.667,347.527 58.592,347.583 58.500 C 347.640 58.408,347.807 58.333,347.955 58.333 C 348.103 58.333,348.342 58.234,348.487 58.112 C 348.632 57.990,349.123 57.752,349.579 57.584 C 350.034 57.415,350.555 57.140,350.735 56.972 C 350.915 56.804,351.161 56.667,351.281 56.667 C 351.402 56.667,351.500 56.590,351.500 56.496 C 351.500 56.403,351.706 56.235,351.958 56.123 C 352.607 55.834,355.500 52.876,355.500 52.501 C 355.500 52.409,355.574 52.333,355.663 52.333 C 355.753 52.333,355.874 52.146,355.932 51.917 C 355.989 51.688,356.103 51.500,356.185 51.500 C 356.266 51.500,356.333 51.350,356.333 51.167 C 356.333 50.983,356.406 50.833,356.496 50.833 C 356.680 50.833,357.333 49.483,357.333 49.102 C 357.333 48.965,357.408 48.807,357.500 48.750 C 357.592 48.693,357.667 48.426,357.667 48.157 C 357.667 47.887,357.742 47.667,357.833 47.667 C 357.925 47.667,358.000 47.382,358.000 47.033 C 358.000 46.685,358.089 46.311,358.199 46.201 C 358.338 46.062,358.397 45.102,358.397 43.000 C 358.397 40.898,358.338 39.938,358.199 39.799 C 358.089 39.689,358.000 39.319,358.000 38.977 C 358.000 38.634,357.925 38.307,357.833 38.250 C 357.742 38.193,357.667 37.968,357.667 37.750 C 357.667 37.532,357.601 37.313,357.522 37.263 C 357.442 37.214,357.329 36.928,357.271 36.628 C 357.150 36.001,356.652 35.000,356.462 35.000 C 356.391 35.000,356.333 34.925,356.333 34.832 C 356.333 34.520,355.086 32.667,354.875 32.667 C 354.761 32.667,354.667 32.594,354.667 32.505 C 354.667 32.308,353.382 31.001,352.250 30.048 C 351.792 29.661,350.779 29.024,350.000 28.631 C 349.221 28.238,348.546 27.875,348.500 27.825 C 348.338 27.647,346.622 27.167,346.148 27.167 C 345.883 27.167,345.667 27.092,345.667 27.000 C 345.667 26.908,345.292 26.833,344.833 26.833 C 344.375 26.833,344.000 26.758,344.000 26.667 C 344.000 26.562,342.920 26.500,341.093 26.500 C 339.335 26.500,338.146 26.566,338.083 26.667 M157.779 34.515 C 158.495 34.614,159.120 34.745,159.166 34.806 C 159.273 34.947,159.729 35.223,160.625 35.690 C 161.015 35.893,161.333 36.121,161.333 36.196 C 161.333 36.272,161.429 36.333,161.546 36.333 C 161.779 36.333,162.333 36.912,162.333 37.155 C 162.333 37.238,162.390 37.331,162.458 37.361 C 162.682 37.461,163.667 39.003,163.667 39.255 C 163.667 39.390,163.733 39.500,163.814 39.500 C 163.896 39.500,164.022 39.856,164.095 40.292 C 164.168 40.727,164.254 41.233,164.287 41.417 C 164.481 42.503,164.512 44.000,164.341 44.000 C 164.238 44.000,164.173 44.169,164.197 44.375 C 164.264 44.953,163.987 46.500,163.818 46.500 C 163.735 46.500,163.667 46.650,163.667 46.833 C 163.667 47.017,163.589 47.167,163.495 47.167 C 163.400 47.167,163.274 47.298,163.215 47.458 C 162.974 48.114,161.678 49.667,161.372 49.667 C 161.294 49.667,161.084 49.798,160.906 49.958 C 160.486 50.337,159.204 51.000,158.891 51.000 C 158.757 51.000,158.693 51.075,158.750 51.167 C 158.813 51.268,158.561 51.333,158.103 51.333 C 157.691 51.333,157.307 51.408,157.250 51.500 C 156.427 52.831,149.004 49.494,149.001 47.792 C 149.000 47.631,148.943 47.500,148.873 47.500 C 148.731 47.500,148.241 46.436,148.072 45.763 C 148.012 45.525,147.896 45.289,147.815 45.239 C 147.621 45.119,147.621 40.881,147.815 40.761 C 147.896 40.711,148.012 40.475,148.072 40.237 C 148.241 39.564,148.731 38.500,148.873 38.500 C 148.943 38.500,149.000 38.387,149.000 38.249 C 149.000 37.729,150.767 35.966,151.708 35.545 C 151.960 35.433,152.167 35.264,152.167 35.170 C 152.167 35.077,152.339 35.000,152.550 35.000 C 152.761 35.000,153.005 34.930,153.092 34.845 C 153.510 34.436,155.966 34.262,157.779 34.515 M193.718 34.524 C 194.377 34.628,194.988 34.778,195.075 34.857 C 195.162 34.936,195.368 35.000,195.533 35.000 C 195.698 35.000,195.833 35.070,195.833 35.155 C 195.833 35.241,195.974 35.356,196.146 35.410 C 196.318 35.465,196.675 35.695,196.938 35.921 C 197.201 36.148,197.492 36.335,197.583 36.337 C 197.828 36.344,199.333 38.395,199.333 38.722 C 199.333 38.875,199.408 39.000,199.500 39.000 C 199.592 39.000,199.667 39.146,199.667 39.325 C 199.667 39.504,199.798 39.724,199.958 39.813 C 200.342 40.028,200.409 45.914,200.031 46.148 C 199.770 46.309,199.333 47.111,199.333 47.430 C 199.333 48.162,195.882 51.000,194.991 51.000 C 194.813 51.000,194.667 51.075,194.667 51.167 C 194.667 51.258,194.367 51.333,194.000 51.333 C 193.633 51.333,193.333 51.408,193.333 51.500 C 193.333 51.596,192.806 51.667,192.083 51.667 C 191.361 51.667,190.833 51.596,190.833 51.500 C 190.833 51.408,190.496 51.333,190.083 51.333 C 189.671 51.333,189.333 51.258,189.333 51.167 C 189.333 51.075,189.146 51.000,188.917 51.000 C 188.688 51.000,188.500 50.939,188.500 50.864 C 188.500 50.790,188.237 50.626,187.917 50.500 C 187.596 50.374,187.333 50.226,187.333 50.171 C 187.333 50.117,187.106 49.938,186.829 49.774 C 186.267 49.442,185.500 48.721,185.500 48.524 C 185.500 48.454,185.369 48.250,185.208 48.072 C 184.755 47.568,184.167 46.409,184.167 46.019 C 184.167 45.825,184.092 45.667,184.000 45.667 C 183.908 45.667,183.833 45.292,183.833 44.833 C 183.833 44.375,183.758 44.000,183.667 44.000 C 183.572 44.000,183.500 43.524,183.500 42.907 C 183.500 42.220,183.562 41.852,183.667 41.917 C 183.770 41.981,183.833 41.668,183.833 41.093 C 183.833 40.498,183.903 40.167,184.028 40.167 C 184.135 40.167,184.174 40.118,184.114 40.059 C 184.022 39.967,184.748 38.413,184.999 38.167 C 185.166 38.002,185.512 37.411,185.608 37.125 C 185.661 36.965,185.769 36.833,185.847 36.833 C 185.925 36.833,186.235 36.619,186.536 36.356 C 186.837 36.094,187.346 35.746,187.667 35.583 C 187.987 35.420,188.287 35.241,188.333 35.185 C 188.870 34.528,191.618 34.190,193.718 34.524 M306.218 34.516 C 306.877 34.616,307.488 34.766,307.575 34.849 C 307.662 34.932,307.868 35.000,308.033 35.000 C 308.198 35.000,308.333 35.063,308.333 35.140 C 308.333 35.217,308.540 35.373,308.792 35.487 C 309.485 35.801,310.656 36.723,310.662 36.958 C 310.664 37.073,310.738 37.167,310.825 37.167 C 311.043 37.167,312.000 38.582,312.000 38.905 C 312.000 39.049,312.060 39.167,312.133 39.167 C 312.960 39.167,312.952 46.438,312.125 46.806 C 312.056 46.836,312.000 47.005,312.000 47.181 C 312.000 47.356,311.925 47.500,311.833 47.500 C 311.742 47.500,311.667 47.576,311.667 47.668 C 311.667 47.831,311.287 48.298,310.250 49.410 C 309.701 49.999,307.951 51.000,307.470 51.000 C 307.303 51.000,307.167 51.067,307.167 51.148 C 307.167 51.464,303.740 51.807,303.453 51.520 C 303.350 51.417,302.944 51.333,302.550 51.333 C 302.156 51.333,301.833 51.266,301.833 51.185 C 301.833 51.103,301.627 50.986,301.375 50.925 C 301.123 50.864,300.524 50.556,300.044 50.240 C 299.564 49.925,299.104 49.667,299.022 49.667 C 298.939 49.667,298.737 49.460,298.572 49.208 C 298.407 48.956,298.192 48.665,298.094 48.560 C 297.354 47.770,296.745 46.591,296.471 45.417 C 296.089 43.778,296.328 39.958,296.846 39.425 C 296.931 39.338,297.000 39.132,297.000 38.967 C 297.000 38.802,297.075 38.667,297.167 38.667 C 297.258 38.667,297.333 38.587,297.333 38.490 C 297.333 37.995,298.886 36.378,300.000 35.711 C 300.412 35.464,300.775 35.203,300.806 35.131 C 300.836 35.059,301.005 35.000,301.181 35.000 C 301.356 35.000,301.500 34.932,301.500 34.848 C 301.500 34.461,304.479 34.251,306.218 34.516 M342.653 34.519 C 343.256 34.621,343.821 34.771,343.908 34.852 C 343.995 34.934,344.202 35.000,344.367 35.000 C 344.532 35.000,344.667 35.056,344.667 35.125 C 344.667 35.194,345.021 35.438,345.453 35.667 C 345.886 35.896,346.505 36.372,346.828 36.725 C 347.152 37.079,347.585 37.544,347.792 37.760 C 347.998 37.975,348.167 38.230,348.167 38.326 C 348.167 38.422,348.235 38.500,348.319 38.500 C 348.402 38.500,348.521 38.800,348.583 39.166 C 348.645 39.532,348.764 39.874,348.848 39.926 C 348.932 39.977,349.000 40.311,349.000 40.667 C 349.000 41.023,349.075 41.360,349.167 41.417 C 349.258 41.473,349.333 42.186,349.333 43.000 C 349.333 43.814,349.258 44.527,349.167 44.583 C 349.075 44.640,349.000 44.898,349.000 45.156 C 349.000 45.604,348.761 46.319,348.244 47.417 C 347.913 48.118,346.260 50.000,345.975 50.000 C 345.900 50.000,345.473 50.225,345.026 50.500 C 344.579 50.775,344.090 51.000,343.940 51.000 C 343.790 51.000,343.667 51.075,343.667 51.167 C 343.667 51.258,343.382 51.333,343.033 51.333 C 342.685 51.333,342.319 51.415,342.219 51.514 C 341.940 51.793,338.439 51.472,338.239 51.149 C 338.188 51.067,338.046 51.000,337.921 51.000 C 337.610 51.000,335.363 49.689,335.209 49.417 C 335.140 49.295,334.802 48.893,334.458 48.522 C 334.115 48.151,333.833 47.770,333.833 47.674 C 333.833 47.578,333.758 47.500,333.667 47.500 C 333.575 47.500,333.500 47.350,333.500 47.167 C 333.500 46.983,333.425 46.833,333.333 46.833 C 333.242 46.833,333.167 46.652,333.167 46.431 C 333.167 46.209,333.073 45.997,332.958 45.958 C 332.802 45.906,332.750 45.163,332.750 43.000 C 332.750 40.837,332.802 40.094,332.958 40.042 C 333.073 40.003,333.167 39.791,333.167 39.569 C 333.167 39.348,333.242 39.167,333.333 39.167 C 333.425 39.167,333.500 39.017,333.500 38.833 C 333.500 38.650,333.575 38.500,333.667 38.500 C 333.758 38.500,333.833 38.418,333.833 38.317 C 333.833 38.020,335.610 36.085,336.117 35.830 C 336.373 35.701,336.782 35.461,337.026 35.298 C 337.269 35.134,337.588 35.000,337.734 35.000 C 337.880 35.000,338.000 34.932,338.000 34.848 C 338.000 34.462,341.043 34.247,342.653 34.519 M123.667 41.333 C 123.667 41.425,123.850 41.500,124.073 41.500 C 124.297 41.500,124.521 41.565,124.570 41.645 C 124.619 41.725,124.868 41.836,125.122 41.891 C 125.581 41.991,127.167 43.375,127.167 43.676 C 127.167 43.762,127.242 43.833,127.333 43.833 C 127.425 43.833,127.500 43.968,127.500 44.133 C 127.500 44.298,127.588 44.521,127.696 44.629 C 127.953 44.886,127.941 48.047,127.683 48.134 C 127.582 48.167,127.500 48.338,127.500 48.514 C 127.500 48.690,127.425 48.833,127.333 48.833 C 127.242 48.833,127.167 48.917,127.167 49.019 C 127.167 49.501,125.010 51.000,124.318 51.000 C 124.143 51.000,124.000 51.075,124.000 51.167 C 124.000 51.258,123.667 51.333,123.260 51.333 C 122.853 51.333,122.473 51.408,122.417 51.500 C 122.352 51.604,120.665 51.667,117.907 51.667 L 113.500 51.667 113.500 46.417 L 113.500 41.167 118.583 41.167 C 121.861 41.167,123.667 41.226,123.667 41.333 " stroke="none" fill="#4c4c4c" fill-rule="evenodd"></path><path id="path2" d="M67.333 5.657 C 67.196 5.733,66.858 5.897,66.583 6.021 C 66.308 6.145,65.296 7.025,64.333 7.975 C 63.371 8.925,62.467 9.789,62.325 9.893 C 62.183 9.998,61.939 10.269,61.783 10.495 C 61.627 10.722,61.500 10.862,61.500 10.807 C 61.500 10.649,57.076 14.900,50.500 21.379 C 48.500 23.348,48.214 23.705,48.002 24.493 C 47.886 24.922,47.844 32.536,47.873 47.621 L 47.917 70.109 48.393 70.733 C 48.654 71.077,48.992 71.395,49.143 71.441 C 49.293 71.487,49.547 71.594,49.706 71.679 C 50.094 71.886,51.954 71.877,52.083 71.667 C 52.140 71.575,52.407 71.500,52.677 71.500 C 52.946 71.500,53.167 71.425,53.167 71.333 C 53.167 71.242,53.318 71.167,53.502 71.167 C 53.687 71.167,53.968 71.099,54.127 71.016 C 54.286 70.934,54.754 70.770,55.167 70.654 C 55.579 70.537,55.988 70.380,56.075 70.304 C 56.162 70.229,56.406 70.167,56.617 70.167 C 56.827 70.167,57.000 70.092,57.000 70.000 C 57.000 69.908,57.225 69.833,57.500 69.833 C 57.775 69.833,58.000 69.765,58.000 69.682 C 58.000 69.599,58.375 69.480,58.833 69.417 C 59.291 69.354,59.708 69.234,59.760 69.151 C 59.811 69.068,59.987 69.000,60.151 69.000 C 60.423 69.000,61.137 68.719,61.873 68.323 C 62.032 68.237,62.267 68.167,62.395 68.167 C 62.691 68.167,64.323 67.685,64.706 67.485 C 64.865 67.401,65.146 67.333,65.331 67.333 C 65.516 67.333,65.667 67.258,65.667 67.167 C 65.667 67.075,65.850 67.000,66.073 67.000 C 66.297 67.000,66.527 66.925,66.583 66.833 C 66.640 66.742,66.865 66.667,67.083 66.667 C 67.302 66.667,67.527 66.592,67.583 66.500 C 67.640 66.408,67.907 66.333,68.177 66.333 C 68.446 66.333,68.667 66.258,68.667 66.167 C 68.667 66.075,68.818 66.000,69.002 66.000 C 69.187 66.000,69.468 65.934,69.627 65.853 C 69.786 65.772,70.498 65.528,71.208 65.311 C 71.918 65.094,72.499 64.860,72.499 64.792 C 72.500 64.723,72.721 64.667,72.990 64.667 C 73.260 64.667,73.525 64.594,73.580 64.505 C 73.635 64.416,74.054 64.293,74.511 64.233 C 74.967 64.172,75.381 64.058,75.430 63.978 C 75.479 63.898,75.696 63.833,75.913 63.833 C 76.129 63.833,76.331 63.761,76.361 63.671 C 76.392 63.582,76.567 63.485,76.750 63.455 C 76.933 63.425,77.243 63.313,77.437 63.205 C 77.632 63.098,78.103 62.961,78.483 62.900 C 78.863 62.839,79.214 62.724,79.264 62.645 C 79.313 62.565,79.532 62.500,79.750 62.500 C 79.968 62.500,80.193 62.425,80.250 62.333 C 80.307 62.242,80.536 62.167,80.760 62.167 C 80.984 62.167,81.167 62.092,81.167 62.000 C 81.167 61.908,81.286 61.833,81.433 61.833 C 81.660 61.833,82.574 61.294,82.833 61.007 C 82.879 60.956,83.198 60.705,83.542 60.449 C 83.885 60.193,84.167 59.874,84.167 59.742 C 84.167 59.609,84.235 59.500,84.318 59.500 C 84.402 59.500,84.633 59.163,84.833 58.751 C 85.032 58.339,85.264 57.960,85.348 57.908 C 85.431 57.856,85.500 57.668,85.500 57.490 C 85.500 57.312,85.567 57.167,85.650 57.167 C 86.064 57.167,86.412 13.845,86.001 13.435 C 85.909 13.342,85.833 13.131,85.833 12.965 C 85.833 12.617,84.686 11.334,84.375 11.334 C 84.260 11.333,84.167 11.258,84.167 11.167 C 84.167 11.070,83.614 11.000,82.843 11.000 C 82.115 11.000,81.473 11.075,81.417 11.167 C 81.360 11.258,81.143 11.333,80.935 11.333 C 80.726 11.333,80.499 11.390,80.431 11.458 C 80.362 11.527,79.956 11.672,79.528 11.780 C 78.363 12.076,77.500 12.399,77.500 12.541 C 77.500 12.610,77.317 12.667,77.093 12.667 C 76.869 12.667,76.646 12.732,76.597 12.811 C 76.548 12.891,76.134 13.006,75.677 13.066 C 75.221 13.127,74.802 13.249,74.747 13.338 C 74.692 13.427,74.431 13.500,74.167 13.500 C 73.902 13.500,73.640 13.575,73.583 13.667 C 73.274 14.167,73.167 13.633,73.167 11.593 C 73.167 10.280,73.098 9.310,73.000 9.250 C 72.908 9.193,72.833 8.963,72.833 8.738 C 72.833 8.375,72.571 7.731,72.329 7.500 C 72.282 7.454,72.111 7.210,71.951 6.958 C 71.790 6.706,71.565 6.500,71.450 6.500 C 71.334 6.500,71.132 6.350,71.000 6.167 C 70.861 5.974,70.569 5.833,70.306 5.833 C 70.057 5.833,69.807 5.758,69.750 5.667 C 69.627 5.468,67.691 5.460,67.333 5.657 " stroke="none" fill="#f47b04" fill-rule="evenodd"></path><path id="path3" d="M24.292 5.735 C 23.948 5.821,23.667 5.958,23.667 6.039 C 23.667 6.120,23.594 6.142,23.506 6.087 C 23.418 6.033,23.193 6.141,23.006 6.327 C 22.819 6.514,22.579 6.667,22.472 6.667 C 22.365 6.667,22.323 6.712,22.378 6.767 C 22.434 6.822,22.305 7.029,22.093 7.225 C 20.779 8.444,20.518 14.333,21.778 14.333 C 21.903 14.333,22.135 14.401,22.294 14.483 C 22.453 14.565,23.146 14.804,23.833 15.013 C 24.521 15.222,25.155 15.455,25.242 15.530 C 25.329 15.605,25.536 15.667,25.702 15.667 C 25.869 15.667,26.135 15.735,26.294 15.818 C 26.453 15.901,27.071 16.101,27.667 16.264 C 28.262 16.426,28.825 16.606,28.917 16.665 C 29.008 16.723,29.871 17.018,30.833 17.319 C 31.796 17.621,32.714 17.935,32.873 18.017 C 33.032 18.099,33.309 18.167,33.488 18.167 C 33.667 18.167,33.860 18.242,33.917 18.333 C 33.973 18.425,34.198 18.500,34.417 18.500 C 34.635 18.500,34.860 18.575,34.917 18.667 C 34.973 18.758,35.166 18.833,35.345 18.833 C 35.525 18.833,35.801 18.900,35.961 18.981 C 36.523 19.266,37.107 19.472,39.333 20.170 C 40.571 20.557,41.658 20.933,41.750 21.005 C 42.136 21.307,43.594 21.404,43.298 21.108 C 43.147 20.957,42.974 20.833,42.914 20.833 C 42.760 20.833,41.167 19.165,41.167 19.005 C 41.167 18.933,41.040 18.771,40.885 18.645 C 40.642 18.448,40.622 18.451,40.744 18.667 C 40.822 18.804,40.429 18.467,39.870 17.917 C 39.311 17.367,38.587 16.671,38.260 16.370 C 37.934 16.070,37.665 15.770,37.662 15.704 C 37.660 15.637,37.392 15.396,37.067 15.167 C 36.741 14.938,36.387 14.649,36.279 14.526 C 35.297 13.401,33.523 11.667,33.356 11.667 C 33.241 11.667,33.179 11.610,33.218 11.542 C 33.256 11.473,32.965 11.154,32.571 10.833 C 32.176 10.512,31.849 10.152,31.843 10.032 C 31.838 9.912,31.770 9.853,31.693 9.900 C 31.616 9.948,31.386 9.761,31.182 9.485 C 30.978 9.209,30.628 8.914,30.405 8.829 C 30.182 8.744,30.000 8.574,30.000 8.451 C 30.000 8.183,29.237 7.485,29.098 7.625 C 29.044 7.678,29.000 7.585,29.000 7.417 C 29.000 7.249,28.954 7.157,28.898 7.213 C 28.843 7.268,28.590 7.088,28.338 6.812 C 27.473 5.864,25.678 5.387,24.292 5.735 M155.628 34.454 C 155.928 34.491,156.378 34.490,156.628 34.452 C 156.878 34.414,156.633 34.384,156.083 34.385 C 155.533 34.386,155.328 34.417,155.628 34.454 M191.628 34.454 C 191.928 34.491,192.378 34.490,192.628 34.452 C 192.878 34.414,192.633 34.384,192.083 34.385 C 191.533 34.386,191.328 34.417,191.628 34.454 M303.958 34.454 C 304.256 34.491,304.744 34.491,305.042 34.454 C 305.340 34.417,305.096 34.387,304.500 34.387 C 303.904 34.387,303.660 34.417,303.958 34.454 M340.458 34.454 C 340.756 34.491,341.244 34.491,341.542 34.454 C 341.840 34.417,341.596 34.387,341.000 34.387 C 340.404 34.387,340.160 34.417,340.458 34.454 " stroke="none" fill="#74d444" fill-rule="evenodd"></path><path id="path4" d="M25.377 5.620 C 25.631 5.658,26.006 5.657,26.211 5.617 C 26.416 5.578,26.208 5.546,25.750 5.548 C 25.292 5.549,25.124 5.581,25.377 5.620 M28.167 6.576 C 28.167 6.754,28.822 7.319,28.893 7.202 C 28.933 7.137,28.786 6.949,28.566 6.784 C 28.346 6.619,28.167 6.525,28.167 6.576 M29.932 8.315 C 30.064 8.579,30.332 8.838,30.526 8.889 C 30.821 8.966,30.787 8.885,30.324 8.407 C 29.649 7.711,29.629 7.706,29.932 8.315 M21.042 9.417 C 21.044 9.783,21.078 9.914,21.118 9.706 C 21.158 9.499,21.156 9.199,21.115 9.040 C 21.073 8.880,21.040 9.050,21.042 9.417 M21.139 14.108 C 21.350 14.511,21.053 14.399,28.000 16.690 C 30.796 17.612,35.430 19.151,38.299 20.111 C 41.168 21.071,43.605 21.819,43.716 21.775 C 43.861 21.715,43.857 21.689,43.698 21.680 C 43.579 21.673,43.521 21.601,43.570 21.521 C 43.620 21.441,43.270 21.324,42.793 21.260 C 42.315 21.197,41.848 21.084,41.754 21.010 C 41.660 20.935,40.571 20.557,39.333 20.170 C 37.107 19.472,36.523 19.266,35.961 18.981 C 35.801 18.900,35.525 18.833,35.345 18.833 C 35.166 18.833,34.973 18.758,34.917 18.667 C 34.860 18.575,34.635 18.500,34.417 18.500 C 34.198 18.500,33.973 18.425,33.917 18.333 C 33.860 18.242,33.667 18.167,33.488 18.167 C 33.309 18.167,33.032 18.099,32.873 18.017 C 32.714 17.935,31.796 17.621,30.833 17.319 C 29.871 17.018,29.008 16.723,28.917 16.665 C 28.825 16.606,28.262 16.426,27.667 16.264 C 27.071 16.101,26.453 15.901,26.294 15.818 C 26.135 15.735,25.869 15.667,25.702 15.667 C 25.536 15.667,25.329 15.605,25.242 15.530 C 25.155 15.455,24.521 15.222,23.833 15.013 C 23.146 14.804,22.453 14.565,22.294 14.483 C 22.135 14.401,21.916 14.333,21.807 14.333 C 21.698 14.333,21.462 14.202,21.281 14.042 C 20.962 13.760,20.958 13.762,21.139 14.108 M38.333 16.575 C 38.333 16.621,38.558 16.774,38.833 16.917 C 39.108 17.059,39.333 17.138,39.333 17.092 C 39.333 17.046,39.108 16.892,38.833 16.750 C 38.558 16.608,38.333 16.529,38.333 16.575 M39.800 17.815 C 40.011 17.999,40.334 18.323,40.518 18.533 L 40.853 18.917 40.582 18.470 C 40.432 18.224,40.109 17.901,39.863 17.752 L 39.417 17.480 39.800 17.815 M41.668 19.530 C 41.666 19.689,42.824 20.899,42.900 20.817 C 42.934 20.780,42.671 20.450,42.316 20.083 C 41.960 19.717,41.669 19.468,41.668 19.530 " stroke="none" fill="#65d350" fill-rule="evenodd"></path></g></svg>